<svg width="115" height="32" viewBox="0 0 115 32" fill="none" xmlns="http://www.w3.org/2000/svg">
<path d="M12.9439 5.67981C12.9439 5.10902 13.4079 4.64631 13.9803 4.64631H15.2194C15.7918 4.64631 16.2558 5.10902 16.2558 5.67981V22.6988C16.2558 23.2696 15.7918 23.7323 15.2194 23.7323H13.3997C13.0621 23.7323 12.7456 23.5683 12.5516 23.2928L4.28172 11.5489C3.99079 11.1358 3.33947 11.341 3.33947 11.8459V22.6988C3.33947 23.2696 2.87547 23.7323 2.30311 23.7323H1.03636C0.463995 23.7323 0 23.2696 0 22.6988V5.67981C0 5.10903 0.463996 4.64631 1.03636 4.64631H2.77256C3.11058 4.64631 3.42737 4.81071 3.62133 5.08678L12.0013 17.0144C12.292 17.4281 12.9439 17.223 12.9439 16.7179V5.67981Z" fill="#141513"/>
<path d="M21.5154 23.7323C20.943 23.7323 20.479 23.2696 20.479 22.6988V11.6475C20.479 11.0768 20.943 10.6141 21.5154 10.6141H22.5338C23.1061 10.6141 23.5701 11.0768 23.5701 11.6475V22.6988C23.5701 23.2696 23.1061 23.7323 22.5338 23.7323H21.5154Z" fill="#141513"/>
<path d="M44.0336 10.4259C46.9867 10.4259 48.7531 12.227 48.7531 16.1517V22.6988C48.7531 23.2696 48.2891 23.7323 47.7167 23.7323H46.6983C46.126 23.7323 45.662 23.2696 45.662 22.6988V16.9044C45.662 14.5388 44.8616 13.1409 43.0401 13.1409C41.3014 13.1409 39.8938 14.6194 39.8938 17.2001V22.6988C39.8938 23.2696 39.4298 23.7323 38.8574 23.7323H37.8391C37.2667 23.7323 36.8027 23.2696 36.8027 22.6988V16.9044C36.8027 14.5388 35.9472 13.1409 34.1256 13.1409C32.2765 13.1409 30.8966 14.6194 30.8966 17.2001V22.6988C30.8966 23.2696 30.4326 23.7323 29.8602 23.7323H28.8418C28.2695 23.7323 27.8055 23.2696 27.8055 22.6988V11.6475C27.8055 11.0768 28.2695 10.6141 28.8418 10.6141H30.4055C30.6779 10.6141 30.8999 10.8321 30.904 11.1037V11.1037C30.9109 11.5645 31.5248 11.798 31.8941 11.5209C32.8532 10.8015 33.9862 10.4259 35.1192 10.4259C36.7118 10.4259 37.9879 10.9602 38.8184 12.0826C39.0446 12.3882 39.395 12.6079 39.7463 12.4613C40.9047 11.9779 42.4645 10.4259 44.0336 10.4259Z" fill="#141513"/>
<path d="M59.9709 10.4259C63.6968 10.4259 66.4843 13.2753 66.4843 17.227C66.4843 21.2861 63.6968 23.9474 59.9433 23.9474C58.0462 23.9474 56.5873 23.2537 55.5939 21.9992C55.5868 21.9903 55.5761 21.985 55.5646 21.985V21.985C55.5441 21.985 55.5275 22.0016 55.5275 22.022V22.8587C55.5275 23.3412 55.1353 23.7323 54.6514 23.7323H53.6108C53.0384 23.7323 52.5744 23.2696 52.5744 22.6988V4.98088C52.5744 4.4101 53.0384 3.94739 53.6108 3.94739H54.6326C55.2036 3.94739 55.6671 4.408 55.669 4.97743L55.684 9.47728C55.6872 10.4281 57.0473 11.0274 57.9534 10.7313C58.5708 10.5295 59.2478 10.4259 59.9709 10.4259ZM59.4742 21.2055C61.7373 21.2055 63.338 19.5657 63.338 17.2538C63.338 14.727 61.5993 13.1409 59.4466 13.1409C57.1283 13.1409 55.5275 14.9151 55.5275 17.2538C55.5275 19.6194 57.2662 21.2055 59.4742 21.2055Z" fill="#141513"/>
<path d="M78.658 11.6475C78.658 11.0768 79.122 10.6141 79.6944 10.6141H80.7127C81.2851 10.6141 81.7491 11.0768 81.7491 11.6475V22.6988C81.7491 23.2696 81.2851 23.7323 80.7127 23.7323H79.1216C78.8655 23.7323 78.658 23.5254 78.658 23.2701V23.2701C78.658 22.8399 78.0866 22.6148 77.7409 22.8722C76.7927 23.578 75.6568 23.9474 74.4906 23.9474C71.5099 23.9474 69.44 22.2153 69.44 18.5979V11.6475C69.44 11.0768 69.904 10.6141 70.4763 10.6141H71.4947C72.067 10.6141 72.531 11.0768 72.531 11.6475V17.7915C72.531 20.399 73.359 21.2055 75.2081 21.2055C77.0021 21.2055 78.658 19.727 78.658 16.9044V11.6475Z" fill="#141513"/>
<path d="M89.977 23.9474C88.1583 23.9474 86.5701 23.4611 85.2764 22.5977C84.8381 22.3052 84.7647 21.7105 85.062 21.2761L85.3983 20.7849C85.7585 20.2586 86.5005 20.1928 87.0409 20.533C87.8669 21.053 88.7955 21.313 89.977 21.313C91.1638 21.313 91.8537 20.8022 91.8537 20.0227C91.8537 19.3506 90.9706 19.028 89.2042 18.4366C86.9963 17.6839 85.092 16.7162 85.092 14.1356C85.092 11.985 87.0791 10.4259 89.839 10.4259C91.2581 10.4259 92.5632 10.7402 93.8174 11.5221C94.2706 11.8045 94.3632 12.4067 94.0715 12.8532L93.7115 13.4042C93.3609 13.9409 92.6109 14.0236 92.0556 13.7016C91.2494 13.2341 90.4133 13.0334 89.6734 13.0334C89.0662 13.0334 88.2107 13.356 88.2107 14.1624C88.2107 14.8076 89.0386 15.2646 90.3358 15.7485C93.2061 16.8506 95 17.3614 95 19.9689C95 22.1732 93.3993 23.9474 89.977 23.9474Z" fill="#141513"/>
<path fill-rule="evenodd" clip-rule="evenodd" d="M111.556 8C111.771 9.00206 112.55 9.78482 113.548 10C112.55 10.2152 111.771 10.9979 111.556 12C111.342 10.9979 110.562 10.2152 109.564 10C110.562 9.78482 111.342 9.00206 111.556 8ZM98.6079 16C98.6079 15.1716 99.2795 14.5 100.108 14.5H113.045C113.873 14.5 114.545 15.1716 114.545 16C114.545 16.8284 113.873 17.5 113.045 17.5H100.108C99.2795 17.5 98.6079 16.8284 98.6079 16ZM100.108 9C99.2795 9 98.6079 9.67157 98.6079 10.5C98.6079 11.3284 99.2795 12 100.108 12H106.072C106.901 12 107.572 11.3284 107.572 10.5C107.572 9.67157 106.901 9 106.072 9H100.108ZM98.6079 21.5C98.6079 20.6716 99.2795 20 100.108 20H101.092C101.92 20 102.592 20.6716 102.592 21.5C102.592 22.3284 101.92 23 101.092 23H100.108C99.2795 23 98.6079 22.3284 98.6079 21.5ZM106.084 20C105.256 20 104.584 20.6716 104.584 21.5C104.584 22.3284 105.256 23 106.084 23H111.052C111.881 23 112.552 22.3284 112.552 21.5C112.552 20.6716 111.881 20 111.052 20H106.084Z" fill="#3A7326"/>
</svg>
